<svg version="1.2" xmlns="http://www.w3.org/2000/svg" viewBox="0 0 48 48" width="48" height="48">
	<title>logo-svg</title>
	<style>
		.s0 { fill: none;stroke: #2d2d2d;stroke-linecap: round;stroke-linejoin: round;stroke-width: 3 } 
		.s1 { fill: #2d2d2d } 
	</style>
	<path id="Layer" fill-rule="evenodd" class="s0" d="m6 15.5c0-1.1 0.9-2 2-2h32c1.1 0 2 0.9 2 2v21.5c0 1.1-0.9 2-2 2h-32c-1.1 0-2-0.9-2-2z"/>
	<path id="Layer" fill-rule="evenodd" class="s0" d="m15 4.5l9 9 9-9"/>
	<path id="Layer" class="s1" d="m35.3 24c-1.3 0-2.3-1-2.3-2.3 0-1.2 1-2.2 2.3-2.2 1.2 0 2.2 1 2.2 2.3 0 1.2-1 2.2-2.2 2.2z"/>
	<path id="Layer" class="s1" d="m35.3 33c-1.3 0-2.3-1-2.3-2.3 0-1.2 1-2.2 2.3-2.2 1.2 0 2.2 1 2.2 2.3 0 1.2-1 2.2-2.2 2.2z"/>
	<path id="Layer" fill-rule="evenodd" class="s0" d="m28.5 39v-25.5"/>
</svg>